<?xml version="1.0" encoding="utf-8"?>
<!-- Generator: Adobe Illustrator 25.0.0, SVG Export Plug-In . SVG Version: 6.00 Build 0)  -->
<svg version="1.1" id="Capa_1" xmlns="http://www.w3.org/2000/svg" xmlns:xlink="http://www.w3.org/1999/xlink" x="0px" y="0px"
	 viewBox="0 0 300 40" style="enable-background:new 0 0 300 40;" xml:space="preserve">
<style type="text/css">
	.st0{fill:#FC3C40;}
	.st1{fill:#FFFFFF;}
</style>
<g>
	<g>
		<path class="st0" d="M58.65,33.65v2.21c0,0.71-0.38,1.04-1.04,1.04H46.64c-0.66,0-1.04-0.33-1.04-1.04V8.68h-3.14V4.03
			c0.05-0.64,0.42-0.89,1.03-0.89h8.19v27.93h3.3V11.14h-0.03V0.22L9.73,0.18c-1.78,0-3.22,1.44-3.22,3.22v5.16v3.58h8.42v27.65
			h12.22v0.04h15.15h4.33H58.5c1.8,0,3.25-1.46,3.25-3.25v-2.91H58.65z M18.04,35.83l0-27.16H9.62V4.13c0-0.71,0.38-1.04,1.04-1.04
			l13.2,0l0.06,33.77h-4.84C18.42,36.87,18.04,36.54,18.04,35.83z M31.49,36.9c-0.66,0-1.04-0.33-1.04-1.04V8.68h-3.03V3.8
			c0-0.37,0.3-0.66,0.66-0.66l0.01,0l8.18,0.06v27.59l6.04,0.01v6.1H31.49z"/>
	</g>
	<path class="st1" d="M74.4,11.3h-3.77c-0.48,0-0.76,0.28-0.76,0.76v1.49H65.9V9.67c0-1.62,0.55-2.21,2.21-2.21h17.1
		c1.66,0,2.21,0.59,2.21,2.21v3.87h-3.97v-1.49c0-0.48-0.28-0.76-0.76-0.76h-3.77v20.69H74.4V11.3z"/>
	<path class="st1" d="M91.36,11.3h-2.25V7.46h14.82c1.62,0,2.35,0.73,2.35,2.35v3.73h-4.11v-1.49c0-0.48-0.28-0.76-0.76-0.76h-5.53
		v6.43h7.95v3.83h-7.95v5.84c0,0.48,0.28,0.76,0.76,0.76h5.67c0.48,0,0.76-0.28,0.76-0.76v-1.49h4.11v3.73
		c0,1.66-0.73,2.35-2.35,2.35H93.71c-1.66,0-2.35-0.69-2.35-2.35V11.3z"/>
	<path class="st1" d="M111.32,12.06c0-0.48-0.28-0.76-0.76-0.76h-1.49V7.46h4.42c1.66,0,2.35,0.73,2.35,2.35V27.4
		c0,0.48,0.28,0.76,0.76,0.76h5.36c0.48,0,0.76-0.28,0.76-0.76v-1.49h4.11v3.73c0,1.66-0.69,2.35-2.35,2.35h-10.81
		c-1.66,0-2.35-0.69-2.35-2.35V12.06z"/>
	<path class="st1" d="M129.52,12.06c0-0.48-0.28-0.76-0.76-0.76h-1.49V7.46h4.42c1.66,0,2.35,0.73,2.35,2.35V27.4
		c0,0.48,0.28,0.76,0.76,0.76h5.36c0.48,0,0.76-0.28,0.76-0.76v-1.49h4.11v3.73c0,1.66-0.69,2.35-2.35,2.35h-10.81
		c-1.66,0-2.35-0.69-2.35-2.35V12.06z"/>
	<path class="st1" d="M157.29,27.19c0,0,2.45,2.97,6.29,2.97c2.66,0,4.8-1.73,4.8-4.32c0-6.01-11.99-4.8-11.99-12.33
		c0-3.39,2.94-6.22,7.43-6.22c2.35,0,6.56,1,6.56,4.18v1.73h-2.28v-1.14c0-1.45-2-2.52-4.25-2.52c-3.14,0-4.97,1.83-4.97,3.9
		c0,5.63,11.99,4.25,11.99,12.26c0,3.63-2.8,6.7-7.36,6.7c-4.97,0-7.7-3.45-7.7-3.45L157.29,27.19z"/>
	<path class="st1" d="M176.12,9.85h-2.25V7.71h13.89c1.49,0,2.11,0.62,2.11,2.11v2.42h-2.28v-1.62c0-0.52-0.28-0.76-0.76-0.76h-8.29
		v8.84h9.12v2.14h-9.12v8.26c0,0.52,0.28,0.76,0.76,0.76h8.53c0.48,0,0.76-0.24,0.76-0.76v-1.62h2.25v2.42
		c0,1.49-0.62,2.11-2.11,2.11h-10.5c-1.49,0-2.11-0.62-2.11-2.11V9.85z"/>
	<path class="st1" d="M193.14,29.85h1.49c0.48,0,0.76-0.24,0.76-0.76V7.71h2.21L210,25.01c0.83,1.21,1.97,3.18,1.97,3.18h0.07
		c0,0-0.17-1.9-0.17-3.18V9.81c0-1.49,0.62-2.11,2.11-2.11h2.56v2.14h-1.49c-0.48,0-0.76,0.24-0.76,0.76v21.38h-2.21l-12.4-17.31
		c-0.86-1.17-2-3.14-2-3.14h-0.07c0,0,0.21,1.87,0.21,3.14v15.2c0,1.49-0.62,2.11-2.11,2.11h-2.56V29.85z M202.96,1.87
		c2.31,0,2.8,2.49,4.35,2.49c1.14,0,1.38-1.49,1.38-2.38h1.83c0,2.66-1.11,4.04-3.21,4.04c-2.35,0-2.8-2.45-4.39-2.45
		c-1.14,0-1.38,1.45-1.38,2.35h-1.8C199.74,3.25,200.81,1.87,202.96,1.87z"/>
	<path class="st1" d="M244.33,10.61c0-0.52-0.28-0.76-0.76-0.76h-1.49V7.71h2.56c1.49,0,2.11,0.62,2.11,2.11v19.28
		c0,0.52,0.28,0.76,0.76,0.76h8.05c0.48,0,0.76-0.24,0.76-0.76v-1.62h2.28v2.42c0,1.49-0.62,2.11-2.11,2.11h-10.05
		c-1.49,0-2.11-0.62-2.11-2.11V10.61z"/>
	<path class="st1" d="M261.57,9.85h-2.25V7.71h13.89c1.49,0,2.11,0.62,2.11,2.11v2.42h-2.28v-1.62c0-0.52-0.28-0.76-0.76-0.76h-8.29
		v8.84h9.12v2.14h-9.12v8.26c0,0.52,0.28,0.76,0.76,0.76h8.53c0.48,0,0.76-0.24,0.76-0.76v-1.62h2.25v2.42
		c0,1.49-0.62,2.11-2.11,2.11h-10.5c-1.49,0-2.11-0.62-2.11-2.11V9.85z"/>
	<path class="st1" d="M279.91,27.19c0,0,2.45,2.97,6.29,2.97c2.66,0,4.8-1.73,4.8-4.32c0-6.01-11.99-4.8-11.99-12.33
		c0-3.39,2.94-6.22,7.43-6.22c2.35,0,6.56,1,6.56,4.18v1.73h-2.28v-1.14c0-1.45-2-2.52-4.25-2.52c-3.14,0-4.97,1.83-4.97,3.9
		c0,5.63,11.99,4.25,11.99,12.26c0,3.63-2.8,6.7-7.36,6.7c-4.97,0-7.7-3.45-7.7-3.45L279.91,27.19z"/>
	<path class="st1" d="M239.78,29.85c-0.66,0-1-0.1-1.24-0.76l-7.95-21.38H228l-7.95,21.38c-0.24,0.66-0.62,0.76-1.24,0.76h-0.45
		v2.14h1.14c1.73,0,2.21-0.35,2.83-2l1.88-5.04l0,0l0.94-2.8h-0.02l0.43-1.17l2.75-7.51c0.41-1.14,0.93-3.14,0.93-3.14h0.07
		c0,0,0.52,2,0.93,3.14l3.21,8.67h-0.03l0.77,2.34l2.02,5.5c0.62,1.66,1.14,2,2.87,2h1.11v-2.14H239.78z"/>
</g>
</svg>
